# xmcd
#
# Track frame offsets:
#	150
#	17268
#	27580
#	40562
#	55120
#	74167
#	90135
#	101559
#	115188
#	129545
#	143136
#	162033
#	176251
#	190929
#	205715
#	220579
#
# Disc length: 3140 seconds
#
# Revision: 1
# Processed by: cddbd v1.5.2PL0 Copyright (c) Steve Scherf et al.
# Submitted via: audiograbber 1.83.01
#
DISCID=cb0c4210
DTITLE=Ernst Mosch und seine Orginal Egerländer Musikanten - Das Vermächtnis - 
DTITLE=seine letzten Aufnahmen Live CD 1
DYEAR=2009
DGENRE=Volksmusik
TTITLE0=Ernst Mosch - Starparade
TTITLE1=Ernst Mosch - Junge Musikanten
TTITLE2=Ernst Mosch - Der Weg zurück
TTITLE3=Ernst Mosch - Böhmischer Leckerbissen
TTITLE4=Ernst Mosch - Egerländer Jubiläumsmarsch
TTITLE5=Ernst Mosch - Im schönen Prag
TTITLE6=Ernst Mosch - Caroline
TTITLE7=Ernst Mosch - Musikantenstolz
TTITLE8=Ernst Mosch - Ein Abend am Meer
TTITLE9=Ernst Mosch - Astronautenmarsch
TTITLE10=Ernst Mosch - Alte Freunde
TTITLE11=Ernst Mosch - Ich hab die Sterne gefragt
TTITLE12=Ernst Mosch - Meine große Liebe
TTITLE13=Ernst Mosch - Musikantenlaune
TTITLE14=Ernst Mosch - Böhmischer Wind
TTITLE15=Ernst Mosch - Egerland-Heimatland
EXTD=YEAR: 2009
EXTT0=
EXTT1=
EXTT2=
EXTT3=
EXTT4=
EXTT5=
EXTT6=
EXTT7=
EXTT8=
EXTT9=
EXTT10=
EXTT11=
EXTT12=
EXTT13=
EXTT14=
EXTT15=
PLAYORDER=
